<mxfile host="app.diagrams.net" modified="2023-12-06T02:27:01.862Z" agent="Mozilla/5.0 (X11; Linux x86_64) AppleWebKit/537.36 (KHTML, like Gecko) Chrome/119.0.0.0 Safari/537.36" etag="SM-6GK93oPST6tY0t9Z9" version="22.1.5" type="device">
  <diagram name="Page-1" id="yUjG4AkK2aQkz0ID7XMn">
    <mxGraphModel dx="1674" dy="779" grid="1" gridSize="10" guides="1" tooltips="1" connect="1" arrows="1" fold="1" page="1" pageScale="1" pageWidth="850" pageHeight="1100" math="0" shadow="0">
      <root>
        <mxCell id="0" />
        <mxCell id="1" parent="0" />
        <mxCell id="NbP7vVtT8CokR_a5LYbm-1" value="&amp;lt;&amp;lt;Abstract&amp;gt;&amp;gt;&lt;br&gt;Pizza" style="swimlane;fontStyle=1;align=center;verticalAlign=top;childLayout=stackLayout;horizontal=1;startSize=40;horizontalStack=0;resizeParent=1;resizeParentMax=0;resizeLast=0;collapsible=1;marginBottom=0;whiteSpace=wrap;html=1;" vertex="1" parent="1">
          <mxGeometry x="350" y="90" width="190" height="200" as="geometry" />
        </mxCell>
        <mxCell id="NbP7vVtT8CokR_a5LYbm-2" value="&lt;b&gt;- nombre: String&lt;br&gt;- descripcion: String&lt;br&gt;- precio: double&lt;/b&gt;" style="text;strokeColor=none;fillColor=none;align=left;verticalAlign=top;spacingLeft=4;spacingRight=4;overflow=hidden;rotatable=0;points=[[0,0.5],[1,0.5]];portConstraint=eastwest;whiteSpace=wrap;html=1;" vertex="1" parent="NbP7vVtT8CokR_a5LYbm-1">
          <mxGeometry y="40" width="190" height="70" as="geometry" />
        </mxCell>
        <mxCell id="NbP7vVtT8CokR_a5LYbm-3" value="" style="line;strokeWidth=1;fillColor=none;align=left;verticalAlign=middle;spacingTop=-1;spacingLeft=3;spacingRight=3;rotatable=0;labelPosition=right;points=[];portConstraint=eastwest;strokeColor=inherit;" vertex="1" parent="NbP7vVtT8CokR_a5LYbm-1">
          <mxGeometry y="110" width="190" height="8" as="geometry" />
        </mxCell>
        <mxCell id="NbP7vVtT8CokR_a5LYbm-4" value="+ Pizza()&lt;br&gt;&lt;b&gt;+ getNombre(): String&lt;/b&gt;&lt;br&gt;&lt;b&gt;+ TosString(): String&lt;/b&gt;&lt;br&gt;&lt;b&gt;+ abstract calcularPrecio()&lt;/b&gt;" style="text;strokeColor=none;fillColor=none;align=left;verticalAlign=top;spacingLeft=4;spacingRight=4;overflow=hidden;rotatable=0;points=[[0,0.5],[1,0.5]];portConstraint=eastwest;whiteSpace=wrap;html=1;" vertex="1" parent="NbP7vVtT8CokR_a5LYbm-1">
          <mxGeometry y="118" width="190" height="82" as="geometry" />
        </mxCell>
        <mxCell id="NbP7vVtT8CokR_a5LYbm-5" value="PizzaSimple" style="swimlane;fontStyle=1;align=center;verticalAlign=top;childLayout=stackLayout;horizontal=1;startSize=30;horizontalStack=0;resizeParent=1;resizeParentMax=0;resizeLast=0;collapsible=1;marginBottom=0;whiteSpace=wrap;html=1;" vertex="1" parent="1">
          <mxGeometry x="630" y="10" width="190" height="210" as="geometry" />
        </mxCell>
        <mxCell id="NbP7vVtT8CokR_a5LYbm-6" value="&lt;b&gt;- nombre: String&lt;/b&gt;&lt;br&gt;&lt;b&gt;- descripcion: String&lt;/b&gt;&lt;br&gt;&lt;b&gt;- precio: double&lt;/b&gt;&lt;br&gt;- precioBase: double&lt;br&gt;- esEspecial: boolean" style="text;strokeColor=none;fillColor=none;align=left;verticalAlign=top;spacingLeft=4;spacingRight=4;overflow=hidden;rotatable=0;points=[[0,0.5],[1,0.5]];portConstraint=eastwest;whiteSpace=wrap;html=1;" vertex="1" parent="NbP7vVtT8CokR_a5LYbm-5">
          <mxGeometry y="30" width="190" height="90" as="geometry" />
        </mxCell>
        <mxCell id="NbP7vVtT8CokR_a5LYbm-7" value="" style="line;strokeWidth=1;fillColor=none;align=left;verticalAlign=middle;spacingTop=-1;spacingLeft=3;spacingRight=3;rotatable=0;labelPosition=right;points=[];portConstraint=eastwest;strokeColor=inherit;" vertex="1" parent="NbP7vVtT8CokR_a5LYbm-5">
          <mxGeometry y="120" width="190" height="8" as="geometry" />
        </mxCell>
        <mxCell id="NbP7vVtT8CokR_a5LYbm-8" value="+ PizzaSimple()&lt;br&gt;&lt;b&gt;+ getNombre(): String&lt;/b&gt;&lt;br&gt;&lt;b&gt;+ TosString(): String&lt;/b&gt;&lt;br&gt;&lt;b&gt;+ abstract calcularPrecio()&lt;/b&gt;" style="text;strokeColor=none;fillColor=none;align=left;verticalAlign=top;spacingLeft=4;spacingRight=4;overflow=hidden;rotatable=0;points=[[0,0.5],[1,0.5]];portConstraint=eastwest;whiteSpace=wrap;html=1;" vertex="1" parent="NbP7vVtT8CokR_a5LYbm-5">
          <mxGeometry y="128" width="190" height="82" as="geometry" />
        </mxCell>
        <mxCell id="NbP7vVtT8CokR_a5LYbm-9" value="PizzaCombinada" style="swimlane;fontStyle=1;align=center;verticalAlign=top;childLayout=stackLayout;horizontal=1;startSize=30;horizontalStack=0;resizeParent=1;resizeParentMax=0;resizeLast=0;collapsible=1;marginBottom=0;whiteSpace=wrap;html=1;" vertex="1" parent="1">
          <mxGeometry x="630" y="370" width="190" height="190" as="geometry" />
        </mxCell>
        <mxCell id="NbP7vVtT8CokR_a5LYbm-10" value="&lt;b&gt;- nombre: String&lt;/b&gt;&lt;br&gt;&lt;b&gt;- descripcion: String&lt;/b&gt;&lt;br&gt;&lt;b&gt;- precio: double&lt;/b&gt;&lt;br&gt;- listaPizza: List&amp;lt;PizzaSimple&amp;gt;" style="text;strokeColor=none;fillColor=none;align=left;verticalAlign=top;spacingLeft=4;spacingRight=4;overflow=hidden;rotatable=0;points=[[0,0.5],[1,0.5]];portConstraint=eastwest;whiteSpace=wrap;html=1;" vertex="1" parent="NbP7vVtT8CokR_a5LYbm-9">
          <mxGeometry y="30" width="190" height="70" as="geometry" />
        </mxCell>
        <mxCell id="NbP7vVtT8CokR_a5LYbm-11" value="" style="line;strokeWidth=1;fillColor=none;align=left;verticalAlign=middle;spacingTop=-1;spacingLeft=3;spacingRight=3;rotatable=0;labelPosition=right;points=[];portConstraint=eastwest;strokeColor=inherit;" vertex="1" parent="NbP7vVtT8CokR_a5LYbm-9">
          <mxGeometry y="100" width="190" height="8" as="geometry" />
        </mxCell>
        <mxCell id="NbP7vVtT8CokR_a5LYbm-12" value="+ PizzaCombinada()&lt;br&gt;&lt;b&gt;+ getNombre(): String&lt;/b&gt;&lt;br&gt;&lt;b&gt;+ TosString(): String&lt;/b&gt;&lt;br&gt;&lt;b&gt;+ abstract calcularPrecio()&lt;/b&gt;&lt;br&gt;+ agregarPizza(PizzaSimple)" style="text;strokeColor=none;fillColor=none;align=left;verticalAlign=top;spacingLeft=4;spacingRight=4;overflow=hidden;rotatable=0;points=[[0,0.5],[1,0.5]];portConstraint=eastwest;whiteSpace=wrap;html=1;" vertex="1" parent="NbP7vVtT8CokR_a5LYbm-9">
          <mxGeometry y="108" width="190" height="82" as="geometry" />
        </mxCell>
        <mxCell id="NbP7vVtT8CokR_a5LYbm-14" style="edgeStyle=orthogonalEdgeStyle;rounded=0;orthogonalLoop=1;jettySize=auto;html=1;entryX=1;entryY=0.5;entryDx=0;entryDy=0;" edge="1" parent="1" source="NbP7vVtT8CokR_a5LYbm-9" target="NbP7vVtT8CokR_a5LYbm-4">
          <mxGeometry relative="1" as="geometry" />
        </mxCell>
        <mxCell id="NbP7vVtT8CokR_a5LYbm-15" style="edgeStyle=orthogonalEdgeStyle;rounded=0;orthogonalLoop=1;jettySize=auto;html=1;entryX=1.016;entryY=0.207;entryDx=0;entryDy=0;entryPerimeter=0;" edge="1" parent="1" source="NbP7vVtT8CokR_a5LYbm-6" target="NbP7vVtT8CokR_a5LYbm-4">
          <mxGeometry relative="1" as="geometry" />
        </mxCell>
        <mxCell id="NbP7vVtT8CokR_a5LYbm-16" value="Pizzeria" style="swimlane;fontStyle=1;align=center;verticalAlign=top;childLayout=stackLayout;horizontal=1;startSize=30;horizontalStack=0;resizeParent=1;resizeParentMax=0;resizeLast=0;collapsible=1;marginBottom=0;whiteSpace=wrap;html=1;" vertex="1" parent="1">
          <mxGeometry x="60" y="80" width="190" height="160" as="geometry" />
        </mxCell>
        <mxCell id="NbP7vVtT8CokR_a5LYbm-17" value="- listaPizzas: List&amp;lt;Pizza&amp;gt;&lt;br&gt;- nombre: String" style="text;strokeColor=none;fillColor=none;align=left;verticalAlign=top;spacingLeft=4;spacingRight=4;overflow=hidden;rotatable=0;points=[[0,0.5],[1,0.5]];portConstraint=eastwest;whiteSpace=wrap;html=1;" vertex="1" parent="NbP7vVtT8CokR_a5LYbm-16">
          <mxGeometry y="30" width="190" height="40" as="geometry" />
        </mxCell>
        <mxCell id="NbP7vVtT8CokR_a5LYbm-18" value="" style="line;strokeWidth=1;fillColor=none;align=left;verticalAlign=middle;spacingTop=-1;spacingLeft=3;spacingRight=3;rotatable=0;labelPosition=right;points=[];portConstraint=eastwest;strokeColor=inherit;" vertex="1" parent="NbP7vVtT8CokR_a5LYbm-16">
          <mxGeometry y="70" width="190" height="8" as="geometry" />
        </mxCell>
        <mxCell id="NbP7vVtT8CokR_a5LYbm-19" value="+ Pizzeria()&lt;br&gt;&lt;b&gt;+ mostrarPizzas()&lt;br&gt;&lt;/b&gt;+ agregarPizza(Pizza)&lt;br&gt;&lt;b&gt;+ TosString(): String&lt;/b&gt;" style="text;strokeColor=none;fillColor=none;align=left;verticalAlign=top;spacingLeft=4;spacingRight=4;overflow=hidden;rotatable=0;points=[[0,0.5],[1,0.5]];portConstraint=eastwest;whiteSpace=wrap;html=1;" vertex="1" parent="NbP7vVtT8CokR_a5LYbm-16">
          <mxGeometry y="78" width="190" height="82" as="geometry" />
        </mxCell>
      </root>
    </mxGraphModel>
  </diagram>
</mxfile>
